<svg width="148" height="148" viewBox="0 0 148 148" fill="none" xmlns="http://www.w3.org/2000/svg">
<g clip-path="url(#clip0_157_629)">
<path d="M0 74.0252C0 52.4366 0 30.8228 0 9.23427C0 3.67358 3.59696 0 9.14228 0C30.1246 0 51.1068 0 72.0891 0C73.1632 0 73.9625 0.3271 74.7369 1.08194C85.5527 11.7001 96.3936 22.3183 107.234 32.9113C108.333 33.9932 108.858 35.0751 108.833 36.6352C108.758 41.592 108.808 46.5236 108.808 51.4804C108.808 51.7321 108.808 51.9837 108.783 52.2353C108.633 53.2418 108.034 53.8708 107.035 53.8205C106.01 53.7953 105.436 53.1411 105.436 52.1095C105.411 50.2224 105.411 48.3353 105.411 46.4481C105.411 43.6804 105.361 40.9126 105.436 38.1448C105.461 37.1132 105.086 36.8868 104.137 36.8868C94.9698 36.9119 85.8275 36.8868 76.6602 36.9119C72.8385 36.9119 70.7902 34.9242 70.7652 31.0745C70.7652 22.3434 70.7402 13.6375 70.7902 4.90649C70.7902 3.74906 70.4905 3.44713 69.3414 3.44713C49.3084 3.49745 29.3003 3.47229 9.26717 3.47229C6.11983 3.47229 4.12152 4.90649 3.52203 7.59878C3.39713 8.12717 3.39713 8.68072 3.39713 9.20911C3.39713 49.4172 3.39713 89.6253 3.39713 129.859C3.39713 132.928 3.39713 135.973 3.39713 139.042C3.39713 142.313 5.52034 144.528 8.76759 144.528C30.2994 144.553 51.8062 144.528 73.3381 144.528C82.1556 144.528 90.9981 144.528 99.8157 144.528C103.313 144.528 105.311 142.515 105.411 138.992C105.461 137.482 105.411 135.973 105.411 134.463C105.436 133.13 106.01 132.4 107.035 132.35C108.059 132.324 108.758 133.079 108.783 134.362C108.808 136.124 108.858 137.885 108.758 139.646C108.508 144.578 104.936 148 100.065 148C69.6412 148 39.1919 148 8.76759 148C3.74683 148 0 144.226 0 139.193C0 117.454 0 95.7395 0 74.0252ZM74.3122 5.48521C74.2623 6.03876 74.2123 6.24005 74.2123 6.44135C74.2123 14.7698 74.2123 23.1234 74.2123 31.4519C74.2123 32.8861 74.8867 33.4648 76.4604 33.4648C84.7035 33.4648 92.9215 33.4648 101.165 33.4648C101.564 33.4648 101.964 33.4145 102.738 33.3893C93.1963 24.0041 83.8542 14.8453 74.3122 5.48521Z" fill="black"/>
<path d="M0 74.0252C0 52.4366 0 30.8228 0 9.23427C0 3.67358 3.59696 0 9.14228 0C30.1246 0 51.1068 0 72.0891 0C73.1632 0 73.9625 0.3271 74.7369 1.08194C85.5527 11.7001 96.3936 22.3183 107.234 32.9113C108.333 33.9932 108.858 35.0751 108.833 36.6352C108.758 41.592 108.808 46.5236 108.808 51.4804C108.808 51.7321 108.808 51.9837 108.783 52.2353C108.633 53.2418 108.034 53.8708 107.035 53.8205C106.01 53.7953 105.436 53.1411 105.436 52.1095C105.411 50.2224 105.411 48.3353 105.411 46.4481C105.411 43.6804 105.361 40.9126 105.436 38.1448C105.461 37.1132 105.086 36.8868 104.137 36.8868C94.9698 36.9119 85.8275 36.8868 76.6602 36.9119C72.8385 36.9119 70.7902 34.9242 70.7652 31.0745C70.7652 22.3434 70.7402 13.6375 70.7902 4.90649C70.7902 3.74906 70.4905 3.44713 69.3414 3.44713C49.3084 3.49745 29.3003 3.47229 9.26717 3.47229C6.11983 3.47229 4.12152 4.90649 3.52203 7.59878C3.39713 8.12717 3.39713 8.68072 3.39713 9.20911C3.39713 49.4172 3.39713 89.6253 3.39713 129.859C3.39713 132.928 3.39713 135.973 3.39713 139.042C3.39713 142.313 5.52034 144.528 8.76759 144.528C30.2994 144.553 51.8062 144.528 73.3381 144.528C82.1556 144.528 90.9981 144.528 99.8157 144.528C103.313 144.528 105.311 142.515 105.411 138.992C105.461 137.482 105.411 135.973 105.411 134.463C105.436 133.13 106.01 132.4 107.035 132.35C108.059 132.324 108.758 133.079 108.783 134.362C108.808 136.124 108.858 137.885 108.758 139.646C108.508 144.578 104.936 148 100.065 148C69.6412 148 39.1919 148 8.76759 148C3.74683 148 0 144.226 0 139.193C0 117.454 0 95.7395 0 74.0252ZM74.3122 5.48521C74.2623 6.03876 74.2123 6.24005 74.2123 6.44135C74.2123 14.7698 74.2123 23.1234 74.2123 31.4519C74.2123 32.8861 74.8867 33.4648 76.4604 33.4648C84.7035 33.4648 92.9215 33.4648 101.165 33.4648C101.564 33.4648 101.964 33.4145 102.738 33.3893C93.1963 24.0041 83.8542 14.8453 74.3122 5.48521Z" fill="black"/>
<g clip-path="url(#clip1_157_629)">
<path d="M62.3184 128.072C62.3184 108.002 62.3184 88.1623 62.3184 68.0921C62.3184 67.4 62.5463 67.1693 63.0022 66.9387C66.8774 64.401 70.7526 61.8634 74.6278 59.3258C75.0837 59.0951 75.5396 58.8644 75.9955 59.3258C79.6427 61.1714 83.5179 63.0169 87.3931 64.8624C87.849 65.0931 88.077 65.3238 88.077 66.0159C88.077 86.7782 88.077 107.54 88.077 128.303C86.9372 128.303 85.5695 128.303 84.4297 128.303C84.4297 108.694 84.4297 88.8544 84.4297 69.2456C84.4297 68.5535 84.2018 68.0921 83.5179 67.8614C81.2384 66.9387 78.9589 65.7852 76.4514 64.8624C76.2235 64.6317 75.7676 64.6317 75.5396 64.401C75.5396 64.8624 75.5396 65.3238 75.5396 65.7852C75.5396 78.7039 75.5396 91.6227 75.5396 104.541C75.5396 112.385 75.5396 120.459 75.5396 128.303C70.9806 128.072 66.6495 128.072 62.3184 128.072ZM63.2302 78.4733C63.914 78.2426 64.3699 78.0119 64.5979 77.7812C65.7376 77.0891 67.1054 76.8584 67.5613 75.9356C68.0172 75.0129 67.7892 73.6287 67.7892 72.2446C67.7892 71.3218 67.7892 70.1683 67.7892 69.0149C66.1936 69.9377 64.8258 70.6297 63.4581 71.5525C63.2302 71.7832 63.0022 72.0139 63.0022 72.2446C63.2302 74.3208 63.2302 76.397 63.2302 78.4733ZM68.0172 110.078C66.8774 110.77 66.1936 111.231 65.0538 111.693C63.4581 112.385 63.0022 113.308 63.2302 114.923C63.4581 116.307 63.2302 117.922 63.2302 119.536C64.8258 118.614 66.1936 117.922 67.3333 117.229C67.5613 116.999 67.7892 116.768 67.7892 116.537C68.0172 114.461 68.0172 112.385 68.0172 110.078ZM63.2302 88.8544C64.8258 87.9316 66.1936 87.2395 67.3333 86.5475C67.5613 86.3168 67.7892 86.0861 67.7892 85.8554C67.7892 83.7792 67.7892 81.7029 67.7892 79.396C66.1936 80.3188 64.8258 81.0109 63.4581 81.9336C63.2302 81.9336 63.2302 82.395 63.2302 82.6257C63.2302 84.4712 63.2302 86.5475 63.2302 88.8544ZM73.488 86.7782C71.8924 87.7009 70.5246 88.393 69.1569 89.3158C68.929 89.5465 68.701 89.7772 68.701 90.0078C68.701 92.0841 68.701 94.1603 68.701 96.2365C70.2967 95.3138 71.6644 94.6217 73.0321 93.6989C73.2601 93.6989 73.2601 93.2375 73.2601 93.0068C73.488 91.1613 73.488 89.0851 73.488 86.7782ZM68.0172 89.7772C67.1054 90.2385 66.4215 90.6999 65.7376 91.1613C63.914 91.8534 63.0022 93.2375 63.4581 95.3138C63.6861 96.4672 63.4581 97.8514 63.4581 99.2355C65.0538 98.3128 66.4215 97.6207 67.5613 96.9286C67.7892 96.6979 68.0172 96.4672 68.0172 96.2365C68.0172 93.9296 68.0172 91.8534 68.0172 89.7772ZM63.2302 109.155C64.8258 108.233 66.1936 107.54 67.5613 106.848C67.7892 106.848 67.7892 106.618 67.7892 106.387C67.7892 104.311 67.7892 102.235 67.7892 99.9276C66.1936 100.85 64.8258 101.542 63.4581 102.465C63.2302 102.465 63.2302 102.927 63.2302 103.157C63.2302 105.003 63.2302 107.079 63.2302 109.155ZM68.701 75.705C69.6128 75.2436 70.0687 74.7822 70.9806 74.5515C73.0321 73.8594 73.9439 72.4753 73.488 70.1683C73.2601 69.0149 73.488 67.6307 73.488 66.2466C71.8924 67.1694 70.5246 67.8614 69.1569 68.7842C68.929 69.0149 68.701 69.2456 68.701 69.4763C68.701 71.5525 68.701 73.6287 68.701 75.705ZM73.488 76.6277C71.8924 77.5505 70.5246 78.2426 69.1569 79.1653C68.929 79.1653 68.929 79.6267 68.929 79.8574C68.929 81.9336 68.929 84.0099 68.929 86.0861C70.5246 85.1633 71.8924 84.4712 73.2601 83.7792C73.488 83.7792 73.716 83.3178 73.716 83.0871C73.488 80.7802 73.488 78.9346 73.488 76.6277ZM68.701 106.387C70.2967 105.464 71.6644 104.772 72.8042 104.08C73.0321 103.849 73.2601 103.619 73.2601 103.388C73.2601 101.312 73.2601 99.2355 73.2601 96.9286C71.6644 97.8514 70.2967 98.5434 68.929 99.4662C68.701 99.4662 68.701 99.9276 68.701 100.158C68.701 102.235 68.701 104.311 68.701 106.387ZM73.488 107.31C71.8924 108.233 70.5246 108.925 69.1569 109.847C68.929 110.078 68.701 110.309 68.701 110.539C68.701 112.616 68.701 114.692 68.701 116.768C70.2967 115.845 71.6644 115.153 73.0321 114.23C73.2601 114.23 73.2601 113.769 73.2601 113.538C73.488 111.693 73.488 109.617 73.488 107.31Z" fill="black"/>
<path d="M75.3116 128.072C75.3116 120.229 75.3116 112.154 75.3116 104.311C75.3116 91.392 75.3116 78.4733 75.3116 65.5546C75.3116 65.0932 75.3116 64.8625 75.3116 64.1704C75.7676 64.4011 75.9955 64.4011 76.2235 64.6318C78.503 65.5546 80.7825 66.708 83.29 67.6308C83.9738 67.8615 84.2018 68.3229 84.2018 69.0149C84.2018 88.6237 84.2018 108.463 84.2018 128.072C81.2384 128.072 78.275 128.072 75.3116 128.072Z" fill="white"/>
<path d="M33.5963 20.1083C34.964 20.1083 36.1038 20.1083 37.2436 20.1083C37.2436 22.4152 37.2436 24.4914 37.2436 26.7983C37.9274 26.337 38.6113 26.1063 39.0672 25.6449C39.5231 25.1835 39.979 25.1835 40.6629 25.4142C46.3617 28.4132 52.2884 31.4122 57.9872 34.1805C58.4431 34.4112 58.6711 34.6419 58.6711 35.3339C58.6711 37.1795 58.6711 39.025 58.6711 41.1012C52.2884 38.3329 46.1337 35.7953 39.979 33.027C39.979 64.6318 39.979 96.0059 39.979 127.38C33.5963 127.38 27.2137 127.38 20.831 127.38C20.831 126.919 20.831 126.688 20.831 126.227C20.831 97.1594 20.831 67.8615 20.831 38.7943C20.831 38.1022 21.0589 37.6409 21.7428 37.1795C25.39 34.6419 29.2652 32.3349 32.9125 29.7973C33.3684 29.336 33.5963 29.1053 33.5963 28.4132C33.5963 25.8756 33.5963 23.1073 33.5963 20.1083ZM29.2652 40.4092C26.9857 41.7933 24.9341 42.9468 22.8826 44.1002C22.6546 44.3309 22.4267 44.7923 22.4267 45.023C22.4267 46.8685 22.4267 48.7141 22.4267 50.5596C22.4267 51.7131 22.4267 52.8665 22.4267 54.2507C24.0223 53.3279 25.39 52.4051 26.9857 51.9438C29.0373 51.2517 29.7211 49.8675 29.4932 47.5606C29.0373 45.2537 29.2652 42.9468 29.2652 40.4092ZM22.4267 99.697C22.8826 99.4663 23.1105 99.2356 23.3385 99.2356C25.1621 98.3128 26.9857 97.1594 28.8093 96.2366C29.0373 96.0059 29.2652 95.5445 29.2652 95.3138C29.2652 93.4683 29.2652 91.6227 29.2652 89.7772C29.2652 88.6238 29.2652 87.4703 29.2652 86.0862C27.8975 86.7782 26.7578 87.4703 25.618 88.1624C24.4782 88.8545 23.1105 89.0851 22.4267 90.2386C21.9708 91.1614 22.1987 92.7762 22.1987 93.9297C22.4267 95.7752 22.4267 97.6207 22.4267 99.697ZM22.4267 69.4763C24.7062 68.0922 26.9857 66.9387 29.0373 65.7853C29.2652 65.5546 29.4932 65.0932 29.4932 64.8625C29.4932 62.0942 29.4932 59.3259 29.4932 56.5576C29.4932 56.3269 29.4932 56.0962 29.4932 55.6348C27.2137 56.7883 25.1621 58.1724 23.1105 59.3259C22.8826 59.5566 22.6546 59.7873 22.6546 60.018C22.4267 63.2477 22.4267 66.2466 22.4267 69.4763ZM29.2652 70.8605C26.9857 72.2446 24.7062 73.3981 22.6546 74.5516C22.4267 74.7822 22.1987 75.2436 22.1987 75.4743C22.1987 77.0892 22.1987 78.9347 22.1987 80.5495C22.1987 81.703 22.1987 83.0872 22.1987 84.2406C22.4267 84.2406 22.6546 84.2406 22.6546 84.2406C24.7062 83.0872 26.7578 82.1644 28.5814 81.0109C28.8093 80.7802 29.0373 80.3189 29.0373 80.0882C29.0373 78.2426 29.0373 76.3971 29.0373 74.5516C29.2652 73.3981 29.2652 72.2446 29.2652 70.8605ZM29.2652 101.081C26.9857 102.465 24.7062 103.619 22.6546 105.003C22.4267 105.234 22.4267 105.695 22.4267 105.926C22.4267 108.002 22.4267 109.847 22.4267 111.924C22.4267 112.846 22.4267 114 22.4267 115.153C24.7062 113.769 26.7578 112.616 29.0373 111.462C29.2652 111.462 29.4932 111.001 29.4932 110.77C29.2652 107.54 29.2652 104.542 29.2652 101.081ZM37.2436 66.708C34.964 67.8615 33.1404 69.2456 31.0889 70.1684C30.6329 70.3991 30.405 70.8605 30.405 71.3219C30.405 73.8595 30.405 76.6278 30.405 79.1654C30.405 79.3961 30.405 79.8575 30.405 80.3189C32.6845 79.1654 34.7361 78.0119 36.7877 76.8585C37.0156 76.6278 37.2436 76.3971 37.2436 76.1664C37.2436 73.1674 37.2436 69.9377 37.2436 66.708ZM37.2436 81.9337C34.964 83.3178 32.9125 84.4713 30.6329 85.6248C30.405 85.8555 30.405 86.3168 30.405 86.5475C30.405 89.3158 30.405 91.8535 30.405 94.6218C30.405 94.8524 30.405 95.0831 30.405 95.5445C32.6845 94.3911 34.7361 93.2376 36.7877 92.0841C37.0156 91.8534 37.2436 91.6227 37.2436 91.3921C37.2436 88.1624 37.2436 85.1634 37.2436 81.9337ZM37.2436 36.4874C34.964 37.8715 32.9125 39.025 30.8609 40.1785C30.633 40.1785 30.405 40.6399 30.405 40.8705C30.405 43.8695 30.405 47.0992 30.405 50.3289C32.6845 48.9448 34.964 47.7913 37.0156 46.6378C37.2436 46.6378 37.2436 46.1765 37.2436 45.9458C37.2436 42.7161 37.2436 39.7171 37.2436 36.4874ZM37.2436 51.4824C35.6479 52.4051 34.0522 53.3279 32.6845 54.02C30.8609 54.7121 30.177 56.0962 30.405 57.9417C30.6329 60.2487 30.405 62.5556 30.405 65.0932C32.6845 63.9397 34.7361 62.7863 37.0156 61.4021C37.2436 61.4021 37.4715 60.9407 37.4715 60.71C37.2436 57.9417 37.2436 54.9427 37.2436 51.4824ZM37.2436 96.9287C34.964 98.0821 33.1404 99.4663 31.0889 100.389C30.6329 100.62 30.405 101.081 30.405 101.543C30.405 104.311 30.405 106.848 30.405 109.617C30.405 109.847 30.405 110.078 30.405 110.539C32.6845 109.386 34.7361 108.233 36.7877 107.079C37.0156 106.848 37.2436 106.618 37.2436 106.387C37.2436 103.388 37.2436 100.389 37.2436 96.9287Z" fill="black"/>
<path d="M50.2369 92.0842C47.5014 90.9307 44.994 90.0079 42.4865 88.8545C42.2585 88.8545 42.0306 88.3931 42.0306 88.1624C42.0306 85.8555 42.0306 83.3179 42.0306 80.7803C42.9424 81.2417 43.6262 81.4723 44.3101 81.703C46.1337 82.3951 47.7294 83.3179 49.553 84.01C49.781 84.2406 50.2369 84.4713 50.2369 84.702C50.4648 87.2396 50.2369 89.5466 50.2369 92.0842Z" fill="black"/>
<path d="M50.2369 51.0209C47.5014 49.8675 44.994 48.9447 42.4865 47.7913C42.2585 47.7913 42.0306 47.3299 42.0306 47.0992C42.0306 44.7923 42.0306 42.2547 42.0306 39.717C42.4865 39.9477 42.9424 39.9477 43.1703 40.1784C45.2219 41.1012 47.2735 42.024 49.553 42.9467C49.781 43.1774 50.2369 43.4081 50.2369 43.8695C50.4648 46.4071 50.2369 48.714 50.2369 51.0209Z" fill="black"/>
<path d="M47.7294 65.7853C50.4648 66.9387 52.9723 68.0922 55.4798 69.2457C55.7077 69.2457 55.9357 69.707 55.9357 69.9377C55.9357 72.2447 55.9357 74.5516 55.9357 77.0892C55.0238 76.6278 54.34 76.3971 53.6561 76.1664C52.0605 75.4743 50.2368 74.7823 48.6412 74.0902C48.4132 73.8595 47.9573 73.6288 47.9573 73.1674C47.7294 70.8605 47.7294 68.3229 47.7294 65.7853Z" fill="black"/>
<path d="M56.1636 111.693C53.4282 110.539 50.9207 109.617 48.4132 108.463C48.1853 108.463 47.9573 108.002 47.9573 107.771C47.9573 105.464 47.9573 102.927 47.9573 100.389C48.6412 100.62 49.3251 101.081 50.0089 101.312C51.8325 102.004 53.6561 102.927 55.4798 103.619C55.7077 103.849 56.1636 104.08 56.1636 104.311C56.3916 106.618 56.1636 109.155 56.1636 111.693Z" fill="black"/>
<path d="M58.4432 66.0159C55.7077 64.8625 53.2003 63.9397 50.6928 62.7863C50.4648 62.7863 50.2369 62.3249 50.2369 62.0942C50.2369 59.7873 50.2369 57.2496 50.2369 54.712C50.6928 54.9427 51.1487 54.9427 51.3766 55.1734C53.4282 56.0962 55.4798 57.019 57.7593 57.9417C57.9873 58.1724 58.4432 58.6338 58.4432 58.8645C58.4432 61.1714 58.4432 63.4783 58.4432 66.0159Z" fill="black"/>
<path d="M63.2302 78.4733C63.2302 76.1663 63.2302 74.3208 63.2302 72.2446C63.2302 72.0139 63.4581 71.7832 63.6861 71.5525C65.0538 70.8604 66.4215 69.9377 68.0172 69.0149C68.0172 70.1684 68.0172 71.0911 68.0172 72.2446C68.0172 73.398 68.2451 75.0129 67.7892 75.9356C67.3333 76.8584 65.9656 77.0891 64.8258 77.7812C64.3699 78.0119 63.914 78.2426 63.2302 78.4733Z" fill="white"/>
<path d="M68.0172 110.078C68.0172 112.385 68.0172 114.461 68.0172 116.538C68.0172 116.768 67.7892 116.999 67.5613 117.23C66.1935 117.922 64.8258 118.614 63.4581 119.536C63.4581 117.922 63.6861 116.307 63.4581 114.923C63.2302 113.308 63.6861 112.385 65.2817 111.693C65.9656 111.462 66.8774 110.77 68.0172 110.078Z" fill="white"/>
<path d="M63.2302 88.8544C63.2302 86.7781 63.2302 84.7019 63.2302 82.6257C63.2302 82.395 63.2302 82.1643 63.4581 81.9336C64.8258 81.0108 66.1935 80.3188 67.7892 79.396C67.7892 81.7029 67.7892 83.7791 67.7892 85.8554C67.7892 86.0861 67.5613 86.3168 67.3333 86.5474C66.1935 87.2395 64.8258 87.9316 63.2302 88.8544Z" fill="white"/>
<path d="M73.488 86.7782C73.488 89.0851 73.488 90.9307 73.488 93.0069C73.488 93.2376 73.2601 93.4683 73.2601 93.699C71.8923 94.6217 70.5246 95.3138 68.929 96.2366C68.929 93.9296 68.929 92.0841 68.929 90.0079C68.929 89.7772 69.1569 89.5465 69.3849 89.3158C70.5246 88.6237 71.8923 87.701 73.488 86.7782Z" fill="white"/>
<path d="M68.0172 89.7772C68.0172 92.0841 68.0172 94.1604 68.0172 96.2366C68.0172 96.4673 67.7892 96.698 67.5613 96.9287C66.1936 97.6207 64.8259 98.3128 63.4581 99.2356C63.4581 97.8514 63.6861 96.4673 63.4581 95.3138C63.2302 93.2376 63.914 91.8534 65.7377 91.1614C66.4215 90.7 67.1054 90.2386 68.0172 89.7772Z" fill="white"/>
<path d="M63.2302 109.155C63.2302 106.848 63.2302 105.003 63.2302 102.927C63.2302 102.696 63.4581 102.235 63.4581 102.235C64.8258 101.312 66.1935 100.62 67.7892 99.6969C67.7892 102.004 67.7892 104.08 67.7892 106.156C67.7892 106.387 67.5613 106.618 67.5613 106.618C66.1936 107.54 64.8258 108.463 63.2302 109.155Z" fill="white"/>
<path d="M68.701 75.705C68.701 73.6287 68.701 71.5525 68.701 69.707C68.701 69.4763 68.929 69.0149 69.157 69.0149C70.5247 68.0921 71.8924 67.4001 73.488 66.4773C73.488 67.8614 73.2601 69.2456 73.488 70.3991C73.716 72.706 73.0321 73.8594 70.9806 74.7822C70.2967 74.7822 69.6129 75.2436 68.701 75.705Z" fill="white"/>
<path d="M73.488 76.6278C73.488 78.9347 73.488 80.7803 73.488 82.8565C73.488 83.0872 73.2601 83.3179 73.0321 83.5486C71.6644 84.2406 70.2967 85.1634 68.701 85.8555C68.701 83.5486 68.701 81.703 68.701 79.6268C68.701 79.3961 68.929 79.1654 68.929 78.9347C70.5247 78.2426 71.8924 77.5506 73.488 76.6278Z" fill="white"/>
<path d="M68.701 106.387C68.701 104.311 68.701 102.234 68.701 100.158C68.701 99.9276 68.701 99.6969 68.929 99.4662C70.2967 98.5434 71.6644 97.8514 73.2601 96.9286C73.2601 99.2355 73.2601 101.312 73.2601 103.388C73.2601 103.619 73.0321 103.849 72.8042 104.08C71.6644 104.772 70.2967 105.695 68.701 106.387Z" fill="white"/>
<path d="M73.488 107.31C73.488 109.617 73.488 111.462 73.488 113.538C73.488 113.769 73.2601 114 73.2601 114.231C71.8923 115.153 70.5246 115.845 68.929 116.768C68.929 114.461 68.929 112.616 68.929 110.539C68.929 110.309 69.1569 110.078 69.3849 109.847C70.5246 108.925 71.8923 108.233 73.488 107.31Z" fill="white"/>
<path d="M29.2653 40.4092C29.2653 42.9468 29.0373 45.2537 29.2653 47.5606C29.4932 49.8675 28.8094 51.021 26.7578 51.9438C25.1621 52.6358 23.7944 53.5586 22.1987 54.2507C22.1987 52.8665 22.1987 51.7131 22.1987 50.5596C22.1987 48.7141 22.1987 46.8686 22.1987 45.023C22.1987 44.5616 22.4267 44.1002 22.6546 44.1002C24.9342 42.9468 26.9857 41.7933 29.2653 40.4092Z" fill="white"/>
<path d="M22.4267 99.697C22.4267 97.6208 22.4267 95.7752 22.4267 93.699C22.4267 92.3148 22.1987 90.9307 22.6546 90.0079C23.1105 89.0852 24.7062 88.6238 25.846 87.9317C26.9857 87.2396 28.1255 86.5475 29.4932 85.8555C29.4932 87.2396 29.4932 88.3931 29.4932 89.5465C29.4932 91.3921 29.4932 93.2376 29.4932 95.0831C29.4932 95.5445 29.2653 96.0059 29.0373 96.0059C27.2137 97.1594 25.3901 98.0821 23.5664 99.0049C23.1105 99.4663 22.8826 99.4663 22.4267 99.697Z" fill="white"/>
<path d="M22.4267 69.4763C22.4267 66.2466 22.4267 63.0169 22.4267 60.0179C22.4267 59.7872 22.6547 59.3258 22.8826 59.3258C24.9342 58.1724 26.9857 57.0189 29.2653 55.6348C29.2653 56.0961 29.2653 56.3268 29.2653 56.5575C29.2653 59.3258 29.2653 62.0941 29.2653 64.8624C29.2653 65.0931 29.0373 65.7852 28.8094 65.7852C26.7578 66.9387 24.7062 68.0921 22.4267 69.4763Z" fill="white"/>
<path d="M29.2653 70.8605C29.2653 72.2446 29.2653 73.3981 29.2653 74.5515C29.2653 76.3971 29.2653 78.2426 29.2653 80.0881C29.2653 80.5495 29.0373 81.0109 28.8094 81.0109C26.7578 82.1644 24.7062 83.3178 22.8826 84.2406C22.8826 84.2406 22.6546 84.2406 22.4267 84.2406C22.4267 83.0871 22.4267 81.703 22.4267 80.5495C22.4267 78.9347 22.4267 77.0892 22.4267 75.4743C22.4267 75.2436 22.6547 74.5515 22.8826 74.5515C24.7062 73.3981 26.9857 72.2446 29.2653 70.8605Z" fill="white"/>
<path d="M29.2653 101.081C29.2653 104.541 29.2653 107.54 29.2653 110.539C29.2653 110.77 29.0373 111.001 28.8093 111.231C26.7578 112.385 24.4783 113.538 22.1987 114.923C22.1987 113.769 22.1987 112.616 22.1987 111.693C22.1987 109.617 22.1987 107.771 22.1987 105.695C22.1987 105.464 22.1987 105.003 22.4267 104.772C24.7062 103.619 26.9857 102.465 29.2653 101.081Z" fill="white"/>
<path d="M37.2436 66.708C37.2436 69.9377 37.2436 73.1674 37.2436 76.1664C37.2436 76.3971 37.0157 76.8585 36.7877 76.8585C34.7361 78.0119 32.6846 79.1654 30.405 80.3188C30.405 79.8574 30.405 79.6268 30.405 79.1654C30.405 76.6278 30.405 73.8595 30.405 71.3218C30.405 70.6298 30.633 70.3991 31.0889 70.1684C33.1405 69.0149 35.192 67.8615 37.2436 66.708Z" fill="white"/>
<path d="M37.2436 81.9337C37.2436 85.1634 37.2436 88.3931 37.2436 91.3921C37.2436 91.6228 37.0157 92.0842 36.7877 92.0842C34.7361 93.2376 32.6846 94.3911 30.405 95.5445C30.405 95.0831 30.405 94.8525 30.405 94.6218C30.405 91.8535 30.405 89.3159 30.405 86.5476C30.405 86.3169 30.405 85.6248 30.633 85.6248C32.9125 84.2406 34.9641 83.0872 37.2436 81.9337Z" fill="white"/>
<path d="M37.2436 36.4874C37.2436 39.7171 37.2436 42.9468 37.2436 45.9458C37.2436 46.1765 37.0157 46.6379 37.0157 46.6379C34.9641 47.7913 32.6846 48.9448 30.405 50.3289C30.405 47.0992 30.405 43.8696 30.405 40.8706C30.405 40.6399 30.633 40.4092 30.8609 40.1785C32.9125 38.7943 34.9641 37.6409 37.2436 36.4874Z" fill="white"/>
<path d="M37.2436 51.4823C37.2436 54.712 37.2436 57.9417 37.2436 60.9407C37.2436 61.1714 37.0156 61.4021 36.7877 61.6327C34.7361 62.7862 32.4566 63.9397 30.1771 65.3238C30.1771 62.7862 30.405 60.4793 30.1771 58.1724C29.9491 56.0961 30.633 54.9427 32.4566 54.2506C34.2802 53.5585 35.6479 52.4051 37.2436 51.4823Z" fill="white"/>
<path d="M37.2436 96.9286C37.2436 100.158 37.2436 103.388 37.2436 106.387C37.2436 106.618 37.0157 107.079 36.7877 107.079C34.7361 108.232 32.6846 109.386 30.405 110.539C30.405 110.078 30.405 109.847 30.405 109.617C30.405 106.848 30.405 104.311 30.405 101.542C30.405 100.85 30.633 100.62 31.0889 100.389C33.1405 99.4662 35.192 98.3127 37.2436 96.9286Z" fill="white"/>
</g>
<path d="M120.074 115.038C121.547 116.573 122.971 118.033 124.42 119.542C126.668 118.184 129.091 117.504 131.789 118.033C133.737 118.41 135.436 119.24 136.834 120.624C139.657 123.417 142.48 126.21 145.202 129.104C149.923 134.136 148.5 142.037 142.28 144.955C138.583 146.692 134.861 146.364 131.764 143.597C128.566 140.728 125.569 137.633 122.646 134.463C119.749 131.293 119.324 126.889 121.347 123.115C121.797 122.26 121.672 121.782 121.023 121.203C120.099 120.373 119.199 119.467 118.375 118.536C117.701 117.756 117.226 117.831 116.452 118.435C108.783 124.222 100.465 125.355 91.6226 121.656C81.8558 117.555 75.8609 107.138 76.96 96.5447C78.4337 82.3033 90.9981 72.4148 105.086 74.4277C117.401 76.2142 126.668 87.7633 125.869 100.269C125.544 105.502 123.82 110.157 120.623 114.284C120.423 114.535 120.223 114.837 120.074 115.038ZM122.497 99.086C122.671 87.5872 113.279 77.7742 101.939 77.5981C90.0489 77.3968 80.432 86.7568 80.2572 98.7086C80.0823 110.333 89.4744 120.096 100.99 120.297C112.705 120.473 122.322 110.987 122.497 99.086ZM144.528 136.35C144.503 134.186 143.853 132.601 142.58 131.293C141.331 130.009 140.057 128.751 138.783 127.468C137.309 125.984 135.885 124.449 134.337 123.04C131.789 120.7 127.967 120.8 125.494 123.191C123.146 125.455 122.771 129.481 124.969 131.871C127.867 135.042 130.889 138.111 134.037 141.03C136.01 142.867 138.508 142.993 140.931 141.785C143.279 140.628 144.403 138.615 144.528 136.35Z" fill="#8A8A8A"/>
</g>
<defs>
<clipPath id="clip0_157_629">
<rect width="148" height="148" fill="white"/>
</clipPath>
<clipPath id="clip1_157_629">
<rect width="106.91" height="108.194" fill="white" transform="translate(0.999146 19.8776)"/>
</clipPath>
</defs>
</svg>
