<svg width="148" height="148" viewBox="0 0 148 148" fill="none" xmlns="http://www.w3.org/2000/svg">
<g clip-path="url(#clip0_163_229)">
<rect x="87" y="24" width="3" height="27.1837" rx="0.707936" fill="black"/>
<path d="M29 130C29 127.687 29 125.403 29 123C34.9806 123 40.9323 123 47 123C47 125.313 47 127.597 47 130C41.0194 130 35.0677 130 29 130Z" fill="black"/>
<path d="M27 35C27 33.3125 27 31.7812 27 30.125C27.5729 30.0937 28.0554 30.0312 28.5378 30.0312C34.8098 30.0312 41.0818 30.0625 47.3839 30C48.6202 30 49.1027 30.3437 48.9821 31.6562C48.8916 32.7187 48.9519 33.8125 48.9519 35C41.5642 35 34.3575 35 27 35Z" fill="black"/>
<path d="M44.927 41.9915C40.4053 41.9915 36.183 42.0256 31.9606 41.9573C31.6312 41.9573 31.0922 41.2738 31.0623 40.8636C30.9425 39.7016 31.0323 38.5055 31.0323 37.1726C31.5714 37.1042 31.9906 37.0359 32.4398 37.0359C36.1231 37.0359 39.8064 37.1042 43.4896 37.0017C44.7174 36.9675 45.0768 37.446 44.9869 38.7789C44.8671 39.77 44.927 40.7953 44.927 41.9915Z" fill="black"/>
<path d="M42 97.2108C42 101.697 42 106.153 42 111C41.2847 110.398 40.8181 110.006 40.3516 109.585C38.7032 107.989 37.0237 106.424 35.4375 104.798C35.1265 104.497 34.8777 103.654 35.0643 103.503C37.2103 101.275 39.4185 99.1376 41.6268 97C41.7201 97.0602 41.8756 97.1505 42 97.2108Z" fill="black"/>
<path d="M42 76C42 80.6667 42 85.3647 42 90C39.625 87.6197 37.2813 85.2707 35 82.9843C37.2188 80.792 39.5937 78.4116 42 76Z" fill="black"/>
<path d="M41 93.8733C38.7181 96.1855 36.3744 98.5611 34 101C34 96.2489 34 91.4344 34 87C36.2511 89.2172 38.6564 91.5928 41 93.8733Z" fill="black"/>
<path d="M42 70C39.6157 67.6823 37.262 65.396 35 63.1723C37.3231 60.7919 39.6463 58.443 42 56C42 60.698 42 65.396 42 70Z" fill="black"/>
<path d="M41 73.0787C38.8243 75.218 36.4279 77.609 34 80C34 75.3124 34 70.5618 34 66C36.2703 68.2966 38.6351 70.7191 41 73.0787Z" fill="black"/>
<path d="M41 53C38.8243 55.1636 36.4595 57.5182 34 60C34 55.2273 34 50.4227 34 46C36.2072 48.1955 38.5721 50.5818 41 53Z" fill="black"/>
<path d="M43 116.041C43 117.789 43 119.252 43 121C41.7454 121 40.5491 121 39.3528 121C37.2812 121 35.1804 120.964 33.1088 121C32.321 121 32 120.679 32 119.644C32.0584 115.149 31.6499 116.112 34.8886 116.041C37.5438 116.005 40.1989 116.041 43 116.041Z" fill="black"/>
<path d="M40 17.9699C37.9349 18 35.9674 18 34 18C34.9837 15.2223 34.9837 15.2223 35.9674 13C37.7191 13 38.1334 13.0073 40 13.0073C40 14.7264 40 16.3806 40 17.9699Z" fill="black"/>
<path d="M34.0075 107C36.3383 109.32 38.5496 111.548 41 113.992C38.7588 113.992 36.6969 114.023 34.6649 113.961C34.4557 113.961 34.0672 113.528 34.0374 113.312C33.9776 111.177 34.0075 109.042 34.0075 107Z" fill="black"/>
<path d="M36 44.0207C37.519 44.0207 39.2318 43.9574 40.9447 44.0523C41.3002 44.0839 41.9143 44.5901 41.9466 44.9381C42.0435 46.6465 41.9789 48.3549 41.9789 50C39.9428 47.9753 38.0037 46.0138 36 44.0207Z" fill="black"/>
<path d="M5.26846 27C4.74415 24.4075 4.8024 24.3171 7.16181 24.0156C17.0655 22.6892 26.9692 21.3327 36.902 20.0967C38.7954 19.8555 40.7761 20.1268 42.6986 20.2474C54.3791 20.9106 66.0596 21.604 77.711 22.2973C88.0808 22.9304 98.4505 23.5634 108.791 24.2266C111.121 24.3773 111.121 24.3773 110.918 27C75.7303 27 40.4848 27 5.26846 27Z" fill="#8A8A8A"/>
<path d="M75 82C75 83.7867 76.716 85.4367 79.5 86.33C82.284 87.2233 85.716 87.2233 88.5 86.33C91.284 85.4367 93 83.7867 93 82C93 80.2133 91.284 78.5633 88.5 77.67C85.716 76.7767 82.284 76.7767 79.5 77.67C76.716 78.5633 75 80.2133 75 82Z" fill="white" stroke="#8A8A8A" stroke-width="2" stroke-linecap="round" stroke-linejoin="round"/>
<path d="M75 75.5C75 77.108 76.716 78.593 79.5 79.397C82.284 80.201 85.716 80.201 88.5 79.397C91.284 78.593 93 77.108 93 75.5C93 73.892 91.284 72.407 88.5 71.603C85.716 70.799 82.284 70.799 79.5 71.603C76.716 72.407 75 73.892 75 75.5Z" fill="white" stroke="#8A8A8A" stroke-width="2" stroke-linecap="round" stroke-linejoin="round"/>
<path d="M75 89.5C75 91.108 76.716 92.593 79.5 93.397C82.284 94.201 85.716 94.201 88.5 93.397C91.284 92.593 93 91.108 93 89.5C93 87.892 91.284 86.407 88.5 85.603C85.716 84.799 82.284 84.799 79.5 85.603C76.716 86.407 75 87.892 75 89.5Z" stroke="#8A8A8A" stroke-width="2" stroke-linecap="round" stroke-linejoin="round"/>
<path d="M75 77V90.3333C75 91.5173 76.158 92.2667 78 93" stroke="#8A8A8A" stroke-width="2" stroke-linecap="round" stroke-linejoin="round"/>
<path d="M84.2766 47C83.0885 47.1078 82.6288 47.6376 83.3323 48.5772C83.7387 49.1163 84.1921 49.6092 84.6454 50.1021C85.6147 51.1186 86.6152 52.1198 87.5844 53.1518C87.7095 53.275 87.7564 53.5215 87.7564 53.7063C87.772 54.2762 87.8033 54.8307 87.7564 55.4006C87.7095 55.9859 87.8971 56.1862 88.5224 56.2478C89.7417 56.3556 90.4921 57.0949 90.5703 58.1115C90.6328 59.1589 89.8668 60.2063 88.8194 60.4682C87.7564 60.7146 87.006 60.2063 86.3963 59.4362C86.0367 58.9741 85.6928 58.2964 84.9893 58.8509C84.3171 59.39 84.8955 59.9137 85.2551 60.3757C86.4276 61.8698 88.0847 62.3627 89.6792 61.7312C91.2425 61.0843 92.2274 59.4516 92.0241 57.7727C91.8522 56.4172 91.0393 55.5547 89.8043 55.031C89.2728 54.7999 89.0226 53.5677 89.4134 53.1518C90.711 51.7964 91.9929 50.4255 93.2904 49.0701C93.4467 48.9006 93.6031 48.7158 93.7281 48.531C94.3534 47.6376 93.8468 47.1387 92.7525 47C88.1885 47.0001 88.5145 47 84.2766 47Z" fill="black"/>
<path d="M64 92L87.1155 60.2162C87.5358 59.6383 88.4091 59.675 88.7794 60.2861L108 92" stroke="black"/>
<path d="M83.231 78.1019C83.231 80.6043 87.4838 82.6325 92.731 82.6325C97.9781 82.6325 102.231 80.6043 102.231 78.1019C102.231 75.5995 97.9781 73.5713 92.731 73.5713C87.4838 73.5713 83.231 75.5995 83.231 78.1019Z" fill="white" stroke="#8A8A8A" stroke-width="2" stroke-linecap="round" stroke-linejoin="round"/>
<path d="M83.231 83.6393V89.9678C83.231 92.5877 87.4838 94.7141 92.731 94.7141C97.9781 94.7141 102.231 92.5877 102.231 89.9678V83.6393" fill="white"/>
<path d="M83.231 83.6393V89.9678C83.231 92.5877 87.4838 94.7141 92.731 94.7141C97.9781 94.7141 102.231 92.5877 102.231 89.9678V83.6393" stroke="#8A8A8A" stroke-width="2" stroke-linecap="round" stroke-linejoin="round"/>
<path d="M83.231 77.5985L83.3481 83.7883C83.3481 86.4083 87.4143 88.6733 92.5757 88.6733C97.7371 88.6733 102.231 86.4083 102.231 83.7883L101.92 77.5985" stroke="#8A8A8A" stroke-width="2" stroke-linecap="round" stroke-linejoin="round"/>
<rect x="60.231" y="91.6938" width="53" height="4.02721" rx="2" fill="black"/>
<path d="M75.011 133.028C90.838 133.028 106.665 133.028 122.492 133.028C124.946 133.028 124.946 133.028 124.946 134.993C124.946 135.325 125.088 135.713 124.911 135.934C124.626 136.321 124.164 136.681 123.701 136.93C123.452 137.069 123.026 136.958 122.67 136.958C90.9091 136.958 59.1484 136.958 27.3877 136.93C26.6052 136.93 25.2181 136.792 25.147 136.598C24.9336 135.519 24.9692 134.412 25.147 133.332C25.1826 133.166 26.2851 133.028 26.8898 133.028C38.1999 133 49.5455 133 60.8556 133C65.5148 133.028 70.2807 133.028 75.011 133.028Z" fill="black"/>
<path d="M51.4 130V107.344H59.752C60.84 107.344 61.9067 107.44 62.952 107.632C63.9973 107.803 65 108.144 65.96 108.656C67.6667 109.531 68.9467 110.821 69.8 112.528C70.6747 114.235 71.112 116.293 71.112 118.704C71.112 122.352 70.1627 125.147 68.264 127.088C66.3867 129.029 63.624 130 59.976 130H51.4ZM60.008 125.904C60.3067 125.904 60.6267 125.883 60.968 125.84C61.3093 125.797 61.6507 125.744 61.992 125.68C62.3333 125.595 62.6533 125.499 62.952 125.392C63.2507 125.285 63.5067 125.168 63.72 125.04C64.5947 124.443 65.2453 123.6 65.672 122.512C66.12 121.403 66.344 120.133 66.344 118.704C66.344 117.573 66.216 116.549 65.96 115.632C65.704 114.715 65.3093 113.936 64.776 113.296C64.1787 112.592 63.4107 112.112 62.472 111.856C61.5547 111.6 60.648 111.472 59.752 111.472H56.04V125.904H60.008ZM81.7533 126.576C82.3933 126.576 82.9373 126.48 83.3853 126.288C83.8546 126.075 84.2386 125.733 84.5373 125.264H89.2733C89.0386 126.139 88.6759 126.896 88.1853 127.536C87.7159 128.176 87.1399 128.699 86.4573 129.104C85.7959 129.509 85.0599 129.808 84.2493 130C83.4386 130.171 82.5853 130.256 81.6892 130.256C78.9586 130.256 76.8893 129.488 75.4813 127.952C74.0946 126.416 73.4013 124.261 73.4013 121.488C73.4013 120.229 73.5826 119.067 73.9453 118C74.3293 116.933 74.8626 116.016 75.5453 115.248C76.2279 114.459 77.0706 113.851 78.0733 113.424C79.0973 112.997 80.2599 112.784 81.5613 112.784C83.0759 112.784 84.3879 113.051 85.4973 113.584C86.6066 114.117 87.4813 114.853 88.1213 115.792C88.7826 116.709 89.2199 117.787 89.4333 119.024C89.6679 120.261 89.6679 121.584 89.4333 122.992H77.9133C77.9986 123.995 78.3506 124.848 78.9693 125.552C79.5879 126.235 80.5159 126.576 81.7533 126.576ZM85.2413 119.888C85.2413 119.355 85.1453 118.885 84.9533 118.48C84.7613 118.053 84.5053 117.712 84.1853 117.456C83.8653 117.179 83.4813 116.976 83.0333 116.848C82.6066 116.72 82.1586 116.656 81.6892 116.656C80.5586 116.677 79.6733 116.987 79.0333 117.584C78.4146 118.16 78.0519 118.928 77.9453 119.888H85.2413ZM108.958 107.344V111.472H97.79V117.328H107.166V121.392H97.79V130H93.15V107.344H108.958ZM114.038 105.296C114.87 105.296 115.542 105.541 116.054 106.032C116.566 106.523 116.822 107.173 116.822 107.984C116.822 108.837 116.566 109.509 116.054 110C115.542 110.469 114.87 110.704 114.038 110.704C113.227 110.704 112.555 110.469 112.022 110C111.51 109.509 111.254 108.837 111.254 107.984C111.254 107.173 111.51 106.523 112.022 106.032C112.555 105.541 113.227 105.296 114.038 105.296ZM116.31 130H111.798V113.136H116.31V130Z" fill="black"/>
</g>
<defs>
<clipPath id="clip0_163_229">
<rect width="148" height="148" fill="white"/>
</clipPath>
</defs>
</svg>
