<svg width="0" height="0" class="hidden">
  <symbol xmlns="http://www.w3.org/2000/svg" viewBox="0 0 24 24" id="twitter">

      <path id="Vector" d="M21 5.10349C20.1 5.56199 19.218 5.7482 18.3 6.02985C17.2911 4.84617 15.7953 4.78067 14.358 5.34023C12.9207 5.89979 11.9793 7.2678 12 8.837V9.77272C9.0795 9.85038 6.4785 8.46739 4.8 6.02985C4.8 6.02985 1.0362 12.985 8.4 16.3227C6.7152 17.4896 5.0349 18.2765 3 18.1942C5.9772 19.8813 9.2217 20.4614 12.0306 19.6137C15.2526 18.6405 17.9004 16.13 18.9165 12.3693C19.2196 11.2256 19.3701 10.0439 19.3638 8.85759C19.3638 8.62459 20.7228 6.26378 21 5.10255V5.10349Z"  stroke-linecap="round" stroke-linejoin="round"></path>


  </symbol>
  <symbol  xmlns="http://www.w3.org/2000/svg" viewBox="0 0 24 24" id="linkedin">
      <path id="Vector" d="M4 6C4 5.46957 4.21071 4.96086 4.58579 4.58579C4.96086 4.21071 5.46957 4 6 4H18C18.5304 4 19.0391 4.21071 19.4142 4.58579C19.7893 4.96086 20 5.46957 20 6V18C20 18.5304 19.7893 19.0391 19.4142 19.4142C19.0391 19.7893 18.5304 20 18 20H6C5.46957 20 4.96086 19.7893 4.58579 19.4142C4.21071 19.0391 4 18.5304 4 18V6Z"  stroke-linecap="round" stroke-linejoin="round"></path>
      <path id="Vector_2" d="M8 11V16"  stroke-linecap="round" stroke-linejoin="round"></path>
      <path id="Vector_3" d="M8 8V8.01"  stroke-linecap="round" stroke-linejoin="round"></path>
      <path id="Vector_4" d="M12 16V11"  stroke-linecap="round" stroke-linejoin="round"></path>
      <path id="Vector_5" d="M16 16V13C16 12.4696 15.7893 11.9609 15.4142 11.5858C15.0391 11.2107 14.5304 11 14 11C13.4696 11 12.9609 11.2107 12.5858 11.5858C12.2107 11.9609 12 12.4696 12 13"   stroke-linecap="round" stroke-linejoin="round"></path>
  </symbol>
  <symbol  xmlns="http://www.w3.org/2000/svg" viewBox="0 0 24 24" id="whatsapp">
      <path id="Vector" d="M3 21L4.65 17.2C3.38766 15.408 2.82267 13.217 3.06104 11.0381C3.29942 8.85915 4.32479 6.84211 5.94471 5.36549C7.56463 3.88887 9.66775 3.05418 11.8594 3.01807C14.051 2.98195 16.1805 3.7469 17.8482 5.16934C19.5159 6.59179 20.6071 8.57395 20.9172 10.7438C21.2272 12.9137 20.7347 15.1222 19.5321 16.9547C18.3295 18.7873 16.4994 20.118 14.3854 20.6971C12.2713 21.2762 10.0186 21.0639 8.05 20.1L3 21Z"  stroke-linecap="round" stroke-linejoin="round"></path>
      <path id="Vector_2" d="M9 10C9 10.1326 9.05268 10.2598 9.14645 10.3536C9.24021 10.4473 9.36739 10.5 9.5 10.5C9.63261 10.5 9.75979 10.4473 9.85355 10.3536C9.94732 10.2598 10 10.1326 10 10V9C10 8.86739 9.94732 8.74021 9.85355 8.64645C9.75979 8.55268 9.63261 8.5 9.5 8.5C9.36739 8.5 9.24021 8.55268 9.14645 8.64645C9.05268 8.74021 9 8.86739 9 9V10ZM9 10C9 11.3261 9.52678 12.5979 10.4645 13.5355C11.4021 14.4732 12.6739 15 14 15M14 15H15C15.1326 15 15.2598 14.9473 15.3536 14.8536C15.4473 14.7598 15.5 14.6326 15.5 14.5C15.5 14.3674 15.4473 14.2402 15.3536 14.1464C15.2598 14.0527 15.1326 14 15 14H14C13.8674 14 13.7402 14.0527 13.6464 14.1464C13.5527 14.2402 13.5 14.3674 13.5 14.5C13.5 14.6326 13.5527 14.7598 13.6464 14.8536C13.7402 14.9473 13.8674 15 14 15Z" stroke-linecap="round" stroke-linejoin="round"></path>
  
  </symbol>
  <symbol fill="none" xmlns="http://www.w3.org/2000/svg" viewBox="0 0 24 24" id="fullname">
      <path id="Vector" d="M20 17V5C20 3.879 19.121 3 18 3C16.879 3 16 3.879 16 5V17L18 19L20 17Z"  stroke-linecap="round" stroke-linejoin="round"></path>
      <path id="Vector_2" d="M16 7H20" stroke-linecap="round" stroke-linejoin="round"></path>
      <path id="Vector_3" d="M18 19H5C4.46957 19 3.96086 18.7893 3.58579 18.4142C3.21071 18.0391 3 17.5304 3 17C3 16.4696 3.21071 15.9609 3.58579 15.5858C3.96086 15.2107 4.46957 15 5 15H9C9.53043 15 10.0391 14.7893 10.4142 14.4142C10.7893 14.0391 11 13.5304 11 13C11 12.4696 10.7893 11.9609 10.4142 11.5858C10.0391 11.2107 9.53043 11 9 11H6" stroke-linecap="round" stroke-linejoin="round"></path>


  </symbol>
  <symbol fill="none" xmlns="http://www.w3.org/2000/svg" viewBox="0 0 24 24" id="email">
      <path id="Vector" d="M3 7C3 6.46957 3.21071 5.96086 3.58579 5.58579C3.96086 5.21071 4.46957 5 5 5H19C19.5304 5 20.0391 5.21071 20.4142 5.58579C20.7893 5.96086 21 6.46957 21 7V17C21 17.5304 20.7893 18.0391 20.4142 18.4142C20.0391 18.7893 19.5304 19 19 19H5C4.46957 19 3.96086 18.7893 3.58579 18.4142C3.21071 18.0391 3 17.5304 3 17V7Z" stroke-linecap="round" stroke-linejoin="round"></path>
      <path id="Vector_2" d="M3 7L12 13L21 7" stroke-linecap="round" stroke-linejoin="round"></path>


  </symbol>
  <symbol fill="none" xmlns="http://www.w3.org/2000/svg" viewBox="0 0 44 44" id="download">
      <path id="Vector" d="M25.6666 5.5V12.8333C25.6666 13.3196 25.8598 13.7859 26.2036 14.1297C26.5474 14.4735 27.0137 14.6667 27.5 14.6667H34.8333" stroke-linecap="round" stroke-linejoin="round"></path>
      <path id="Vector_2" d="M31.1666 38.5H12.8333C11.8608 38.5 10.9282 38.1137 10.2406 37.4261C9.55293 36.7384 9.16663 35.8058 9.16663 34.8333V9.16667C9.16663 8.19421 9.55293 7.26158 10.2406 6.57394C10.9282 5.88631 11.8608 5.5 12.8333 5.5H25.6666L34.8333 14.6667V34.8333C34.8333 35.8058 34.447 36.7384 33.7594 37.4261C33.0717 38.1137 32.1391 38.5 31.1666 38.5Z" stroke-linecap="round" stroke-linejoin="round"></path>
      <path id="Vector_3" d="M16.5 16.5H18.3333" stroke-linecap="round" stroke-linejoin="round"></path>
      <path id="Vector_4" d="M16.5 23.8334H27.5" stroke-linecap="round" stroke-linejoin="round"></path>
      <path id="Vector_5" d="M16.5 31.1666H27.5"  stroke-linecap="round" stroke-linejoin="round"></path>

  </symbol>
  <symbol fill="none" xmlns="http://www.w3.org/2000/svg" viewBox="0 0 72 48" id="menu-outline">
    <g id="menu-outline">
        <path id="Vector 1" d="M2 16H62" stroke="black" stroke-width="2" stroke-linecap="round"></path>
        <path id="Vector 3" d="M2 32H62" stroke="black" stroke-width="2" stroke-linecap="round"></path>
        <path id="Vector 2" d="M32 24H62" stroke="black" stroke-width="2" stroke-linecap="round"></path>
    </g>
  </symbol>
  <symbol fill="none" xmlns="http://www.w3.org/2000/svg" viewBox="0 0 64 48" id="menu-close">
    <g id="menu-close">
      <path id="Union" fill-rule="evenodd" clip-rule="evenodd" d="M1.80669 31.2753C1.40647 31.3821 1.16854 31.793 1.27527 32.1932C1.38199 32.5935 1.79296 32.8314 2.19319 32.7247L31.9999 24.7762L61.8067 32.7247C62.2069 32.8314 62.6179 32.5935 62.7246 32.1932C62.8313 31.793 62.5934 31.3821 62.1932 31.2753L34.9107 24L62.1932 16.7247C62.5934 16.618 62.8313 16.207 62.7246 15.8068C62.6179 15.4065 62.2069 15.1686 61.8067 15.2753L31.9999 23.2238L2.19319 15.2753C1.79296 15.1686 1.38199 15.4065 1.27527 15.8068C1.16854 16.207 1.40647 16.618 1.80669 16.7247L29.0892 24L1.80669 31.2753Z" fill="#1D1B26"></path>
    </g>
  </symbol>
</svg>