<svg width="148" height="148" viewBox="0 0 148 148" fill="none" xmlns="http://www.w3.org/2000/svg">
<path d="M0 74.0252C0 52.4366 0 30.8228 0 9.23427C0 3.67358 3.59696 0 9.14228 0C30.1246 0 51.1068 0 72.0891 0C73.1632 0 73.9625 0.3271 74.7369 1.08194C85.5527 11.7001 96.3936 22.3183 107.234 32.9113C108.333 33.9932 108.858 35.0751 108.833 36.6352C108.758 41.592 108.808 46.5236 108.808 51.4804C108.808 51.7321 108.808 51.9837 108.783 52.2353C108.633 53.2418 108.034 53.8708 107.035 53.8205C106.01 53.7953 105.436 53.1411 105.436 52.1095C105.411 50.2224 105.411 48.3353 105.411 46.4481C105.411 43.6804 105.361 40.9126 105.436 38.1448C105.461 37.1132 105.086 36.8868 104.137 36.8868C94.9698 36.9119 85.8275 36.8868 76.6602 36.9119C72.8385 36.9119 70.7902 34.9242 70.7652 31.0745C70.7652 22.3434 70.7402 13.6375 70.7902 4.90649C70.7902 3.74906 70.4905 3.44713 69.3414 3.44713C49.3084 3.49745 29.3003 3.47229 9.26717 3.47229C6.11983 3.47229 4.12152 4.90649 3.52203 7.59878C3.39713 8.12717 3.39713 8.68072 3.39713 9.20911C3.39713 49.4172 3.39713 89.6253 3.39713 129.859C3.39713 132.928 3.39713 135.973 3.39713 139.042C3.39713 142.313 5.52034 144.528 8.76759 144.528C30.2994 144.553 51.8062 144.528 73.3381 144.528C82.1556 144.528 90.9981 144.528 99.8157 144.528C103.313 144.528 105.311 142.515 105.411 138.992C105.461 137.482 105.411 135.973 105.411 134.463C105.436 133.13 106.01 132.4 107.035 132.35C108.059 132.324 108.758 133.079 108.783 134.362C108.808 136.124 108.858 137.885 108.758 139.646C108.508 144.578 104.936 148 100.065 148C69.6412 148 39.1919 148 8.76759 148C3.74683 148 0 144.226 0 139.193C0 117.454 0 95.7395 0 74.0252ZM74.3122 5.48521C74.2623 6.03876 74.2123 6.24005 74.2123 6.44135C74.2123 14.7698 74.2123 23.1234 74.2123 31.4519C74.2123 32.8861 74.8867 33.4648 76.4604 33.4648C84.7035 33.4648 92.9215 33.4648 101.165 33.4648C101.564 33.4648 101.964 33.4145 102.738 33.3893C93.1963 24.0041 83.8542 14.8453 74.3122 5.48521Z" fill="black"/>
<line x1="12" y1="34" x2="52" y2="34" stroke="black" stroke-width="4"/>
<line x1="12" y1="56" x2="97" y2="56" stroke="#8A8A8A" stroke-width="4"/>
<line x1="12" y1="72" x2="75" y2="72" stroke="#8A8A8A" stroke-width="4"/>
<rect x="74" y="123" width="23" height="7" rx="2" fill="#8A8A8A"/>
<rect x="80" y="116" width="12" height="5" rx="2" fill="#8A8A8A"/>
<path d="M79.6173 98.8303C80.0331 97.1325 81.5913 96 83.3393 96H88.6379C90.4294 96 92.0117 97.1895 92.3944 98.9397C92.6155 99.951 92.8249 101.064 92.9187 102C93.2549 105.355 92.4696 110.051 91.9953 112.452C91.8155 113.362 91.0113 114 90.0834 114H81.9678C81.048 114 80.2493 113.375 80.0634 112.474C79.5396 109.936 78.6433 104.768 79.1501 101.143C79.2494 100.433 79.4267 99.6085 79.6173 98.8303Z" fill="#8A8A8A"/>
<circle cx="27" cy="115" r="13" stroke="black" stroke-width="4"/>
</svg>
